<?xml version="1.0" encoding="UTF-8"?>
<svg width="16px" height="16px" viewBox="0 0 53 45" version="1.1" xmlns="http://www.w3.org/2000/svg" xmlns:xlink="http://www.w3.org/1999/xlink">
    <!-- Generator: Sketch 64 (93537) - https://sketch.com -->
    <title>Cloudwatch log gropu - option 2 Copy</title>
    <desc>Created with Sketch.</desc>
    <g id="Page-1" stroke="none" stroke-width="1" fill="none" fill-rule="evenodd">
        <g id="Cloudwatch-log-gropu---option-2-Copy" transform="translate(0.043478, 0.948012)" fill="#999999">
            <g id="Icon_Test" fill-rule="nonzero">
                <path d="M19.5,33 L8.5,33 C7.38725611,32.978494 6.30152055,32.6534648 5.36,32.06 C2.27568325,30.1705094 0.425599771,26.7863032 0.5,23.17 C0.290706784,18.9795352 2.97667935,15.1902478 7,14 C7,13.74 7,13.48 7,13.22 C7.1117931,8.03829418 10.1381651,3.36328473 14.82,1.14 C19.8749815,-1.09645487 25.7894638,0.0752444713 29.61,4.07 C30.8636011,5.34667544 31.879502,6.83666342 32.61,8.47 C33.6520881,7.62890484 34.9508254,7.17011178 36.29,7.17 C39.01,7.17 42.07,9.23 42.63,13.75 C45.2,14.36 50.48,16.46 50.48,23.26 C50.6583111,26.7360074 48.816361,30.0032296 45.75,31.65 L44.75,29.9 C47.1676516,28.5924996 48.6100964,26.0038961 48.45,23.26 C48.45,17.38 43.58,15.92 41.45,15.56 C41.1857467,15.5129091 40.9515184,15.3615616 40.8,15.14 C40.6533771,14.9305559 40.5925434,14.6729073 40.63,14.42 C40.34,10.79 38.22,9.17 36.23,9.17 C34.944292,9.18146745 33.7424747,9.81028207 33,10.86 C32.7817383,11.1588407 32.4162854,11.3127157 32.05,11.26 C31.6849574,11.2028433 31.3811791,10.9490539 31.26,10.6 C30.6079795,8.68065277 29.5351538,6.93133187 28.12,5.48 C24.8795842,2.11737534 19.8881612,1.12786863 15.61,3 C11.6842326,4.90956351 9.13931544,8.83666713 9,13.2 C9.00086107,13.6611334 9.02756963,14.1218561 9.08,14.58 C9.147218,15.1062922 8.79171183,15.5934674 8.27,15.69 C4.75685798,16.4079786 2.29851916,19.5893583 2.49,23.17 C2.40451616,26.1033965 3.90653902,28.8551942 6.42,30.37 C7.04190321,30.7679392 7.7618111,30.9859882 8.5,31 L19.5,31 L19.5,33 Z" id="Path"/>
            </g>
            <path d="M23.3935223,24.7864981 L33.5885238,24.7864981 C33.9608152,24.7864981 34.3022862,24.993312 34.4747507,25.3232467 L36.2637924,28.7457883 L36.2637924,28.7457883 L33.8934907,28.7457883 L32.8827425,26.7864981 L24.3924237,26.7864981 C24.3934388,35.5508859 24.3934388,40.4342762 24.3924237,41.4366688 C24.3924104,41.4497865 36.212648,41.4403119 40.5247628,41.443275 C40.538288,41.4432843 40.5359039,37.8735165 40.5176105,30.7339717 L35.1034789,30.7339717 L33.8934907,28.7457883 L41.4959712,28.7457883 C42.0482559,28.7457883 42.4959712,29.1935035 42.4959712,29.7457883 L42.4959712,42.4366688 C42.4959712,42.9889535 42.0482559,43.4366688 41.4959712,43.4366688 L23.3935223,43.4366688 C22.8412376,43.4366688 22.3935223,42.9889535 22.3935223,42.4366688 L22.3935223,25.7864981 C22.3935223,25.2342133 22.8412376,24.7864981 23.3935223,24.7864981 Z" id="Rectangle"/>
            <rect id="Rectangle-Copy-21" x="26.5276932" y="32.7342373" width="11.3134682" height="2"/>
            <rect id="Rectangle-Copy-22" x="35.0880572" y="36.9824397" width="2.75310419" height="2"/>
            <rect id="Rectangle-Copy-23" x="26.5276932" y="36.9824397" width="6.17971087" height="2"/>
        </g>
    </g>
</svg>
